<svg xmlns="http://www.w3.org/2000/svg" aria-hidden="true" style="position:absolute;width:0;height:0;overflow:hidden">
    <defs>
        <symbol id="satellite_antenna" viewBox="0 0 32 32">
            <path fill="#2e2f42" d="m30.77 22.1-8.44-8.5.94-4.62c.24.1.5.14.75.14h.01a2.16 2.16 0 1 0-2-1.43l-4.97.6L8.97.16A.53.53 0 0 0 8.6 0a.53.53 0 0 0-.37.16l-1.51 1.5a.53.53 0 0 0 0 .75l.81.83a14.94 14.94 0 0 0 2.52 17.66.51.51 0 0 0 .15.1 2.5 2.5 0 0 0-.05.55v6.18h-6.4a2.67 2.67 0 0 0-2.67 2.67v1.07c0 .3.24.53.53.53h24.54a.53.53 0 0 0 .53-.53V30.4A2.67 2.67 0 0 0 24 27.74h-6.4v-2.75a15.09 15.09 0 0 0 3.05.32 14.85 14.85 0 0 0 7.04-1.78l.82.82a.53.53 0 0 0 .38.16.53.53 0 0 0 .37-.15l1.51-1.5a.53.53 0 0 0 0-.76zM23.28 6.23a1.07 1.07 0 1 1 .75 1.83 1.07 1.07 0 0 1-.75-1.83zm-1.26 3.5-.6 2.95-1.17-1.18 1.78-1.76zm-.6-.9-1.92 1.92-1.5-1.5 3.4-.41zM24 28.8a1.6 1.6 0 0 1 1.6 1.6v.53H2.14v-.53a1.6 1.6 0 0 1 1.6-1.6H24zm-7.46-2.13v1.06H11.2v-1.06h5.34zM11.2 25.6v-4.05c0-1.3 1.2-2.35 2.67-2.35s2.67 1.05 2.67 2.35v4.05H11.2zm6.4-1.7v-2.35c0-1.89-1.67-3.42-3.73-3.42a3.8 3.8 0 0 0-3.28 1.79A13.87 13.87 0 0 1 8.31 4.03l18.6 18.71a13.82 13.82 0 0 1-9.3 1.16zm11.3-.68L7.83 2.04l.75-.75 7.94 7.98 13.12 13.2-.76.75z" style="fill:var(--color1, #2e2f42)"/>
            <path fill="#4d5ae5" d="M13.88 20.27a1.6 1.6 0 1 0-.01 3.2 1.6 1.6 0 1 0 0-3.2zm.37 1.97a.53.53 0 0 1-.75-.75.53.53 0 0 1 .37-.16.53.53 0 0 1 .37.92z" style="fill:var(--color2, #4d5ae5)"/>
        </symbol>
        <symbol id="astronaut" viewBox="0 0 32 32">
            <path fill="#4d5ae5" d="M31.97 4.52a.53.53 0 0 0-.43-.36l-1.9-.28-.86-1.73c-.18-.36-.78-.36-.96 0l-.85 1.73-1.91.28a.54.54 0 0 0-.3.91l1.38 1.35-.32 1.9c-.04.2.05.4.21.52a.53.53 0 0 0 .56.04l1.71-.9 1.71.9a.54.54 0 0 0 .78-.56l-.33-1.9 1.38-1.35a.54.54 0 0 0 .14-.55zm-2.46 1.33a.53.53 0 0 0-.15.47l.19 1.12-1-.53a.53.53 0 0 0-.5 0l-1 .53.2-1.12a.53.53 0 0 0-.16-.47l-.81-.79 1.12-.16a.53.53 0 0 0 .4-.3l.5-1 .5 1a.54.54 0 0 0 .4.3l1.12.16-.8.8zm-3.38 14.67h-1.06v1.07h1.06v-1.07zm0 2.14h-1.06v1.06h1.06v-1.06zm1.07-1.07h-1.07v1.07h1.07v-1.07zm-2.13 0H24v1.07h1.07v-1.07zm-2.67 4.8h-1.07v1.07h1.07v-1.07zm0 2.13h-1.07v1.07h1.07v-1.07zm1.07-1.06H22.4v1.06h1.07v-1.06zm-2.14 0h-1.06v1.06h1.06v-1.06zM16 24.26h-1.07v1.06H16v-1.06zm0 2.13h-1.07v1.07H16v-1.07zm1.07-1.07H16v1.07h1.07v-1.07zm-2.14 0h-1.06v1.07h1.06v-1.07zM5.87 6.12H4.8V7.2h1.07V6.12zm0 2.14H4.8v1.06h1.07V8.26zm1.06-1.07H5.87v1.07h1.06V7.19zm-2.13 0H3.73v1.07H4.8V7.19z" style="fill:var(--color2, #4d5ae5)"/>
            <path fill="#2e2f42" d="M24.71 14.16a1.77 1.77 0 0 0-1.18-.7 1.78 1.78 0 0 0-1.34.35l-1.26.96-1.9 1.41-1.35-.54A6.94 6.94 0 0 0 14.83 2.4a6.96 6.96 0 0 0-6.96 6.93A6.86 6.86 0 0 0 9 13.08l-2.76-.02H6.2a.52.52 0 0 0-.16.03l-.03.02h-.02l-3.24 1.6-1.89.9a.4.4 0 0 0-.06.04 1.78 1.78 0 0 0-.6 2.3c.22.43.6.74 1.06.89a1.78 1.78 0 0 0 1.37-.13l1.4-.74 2.26-1.17h1.35L2.2 22.2.86 23.54a1.65 1.65 0 0 0 0 2.36 1.67 1.67 0 0 0 2.36 0l1.31-1.3 1.74-1.3.9.89-1.76 1.75-1.34 1.34a1.65 1.65 0 0 0 0 2.35 1.67 1.67 0 0 0 2.36 0l3.48-3.46 1.01-1 .02-.02 5.17-5.66 3.47.5a.52.52 0 0 0 .26-.04l.05-.02.06-.03 3.21-2.13.03-.03.04-.03 1.27-1.19c.67-.62.76-1.63.22-2.36zM2.14 17.77a.71.71 0 0 1-.56.05.72.72 0 0 1-.21-1.26l1.31-.63.45 1.31-.99.53zm3.5-1.83-1.55.8-.44-1.28 2.03-1-.04 1.48zm15.1-6.62a5.79 5.79 0 0 1-.6 2.56l-4.18-1.9a1.86 1.86 0 0 0-.8-1.39l1.47-4.86a5.88 5.88 0 0 1 4.1 5.6zm-11.8 0a5.89 5.89 0 0 1 6.65-5.81l-1.44 4.75h-.05a1.87 1.87 0 1 0 0 3.73c.7 0 1.3-.38 1.62-.95l3.86 1.76a5.9 5.9 0 0 1-4.74 2.39 5.89 5.89 0 0 1-5.9-5.87zm5.96.8a.8.8 0 0 1-1.6 0 .8.8 0 0 1 1.6 0zM2.46 25.15a.6.6 0 0 1-.85 0 .6.6 0 0 1 0-.85l.96-.95.85.84-.96.96zm3.22 3.73a.6.6 0 0 1-.86 0 .6.6 0 0 1 0-.84l.97-.96.85.85-.96.95zm3.48-3.47-1.77 1.76-.85-.85 1.76-1.75c.05-.04.07-.09.1-.14l.02-.04c.02-.04.02-.08.03-.13l.01-.07-.02-.1c0-.04 0-.07-.02-.1a.55.55 0 0 0-.09-.14l-.02-.04-1.61-1.6-.06-.04a.5.5 0 0 0-.09-.05.52.52 0 0 0-.09-.04.5.5 0 0 0-.1-.02.5.5 0 0 0-.1 0 .53.53 0 0 0-.1.03.48.48 0 0 0-.1.04l-.06.03-1.77 1.33-.9-.9 2.4-2.39 4.36 4.3-.93.91zm6.82-7.02h-.05a.56.56 0 0 0-.3.08.5.5 0 0 0-.08.06l-.04.03-4.7 5.15-4.33-4.26 2.84-2.82a.53.53 0 0 0-.38-.9H6.72l.03-1.6 3.1.02a6.95 6.95 0 0 0 4.98 2.1c.44 0 .87-.04 1.28-.12.04.03.08.07.13.09l2.41.96.15.75.18.89-3-.43zm4.04.18-.31-1.56 1.44-1.08.95 1.26-2.08 1.38zm3.75-2.83-.83.79-.94-1.24.84-.64a.73.73 0 0 1 .54-.14.72.72 0 0 1 .48.28.71.71 0 0 1-.09.95z" style="fill:var(--color1, #2e2f42)"/>
            <path fill="#2e2f42" d="m13.6 18.54-2.14-2.13a.53.53 0 0 0-.75 0l-2.15 2.13a.54.54 0 0 0 0 .76l2.15 2.13a.54.54 0 0 0 .75 0l2.14-2.13a.54.54 0 0 0 0-.76zm-2.52 1.76L9.7 18.92l1.38-1.38 1.39 1.38-1.39 1.38zm6.08-15.23-.25 1.04c.07.01 1.73.45 1.73 2.15h1.07c0-2.02-1.66-2.97-2.55-3.19zm2.55 4.25h-1.07v1.07h1.07V9.32z" style="fill:var(--color1, #2e2f42)"/>
        </symbol>
        <symbol id="clock" viewBox="0 0 32 32">
            <path fill="#2e2f42" d="M31.3 15.3a15.3 15.3 0 1 0-30.61 0 15.3 15.3 0 0 0 10.65 14.58.66.66 0 0 0 .53-.06.64.64 0 0 0 .28-.36L16 17.21a1.91 1.91 0 1 0-.84-3.63l-5.1-5.1a.64.64 0 0 0-.9.9l5.1 5.1a1.88 1.88 0 0 0 .54 2.31l-3.69 11.67a14.04 14.04 0 1 1 18.03-8.32 14.04 14.04 0 0 1-7.46 7.97l-.4-1.87a.64.64 0 0 0-1.04-.34l-3.84 3.42a.64.64 0 0 0 .23 1.09l4.9 1.56a.64.64 0 0 0 .82-.74l-.4-1.84A15.26 15.26 0 0 0 31.3 15.3zM16 14.66a.64.64 0 1 1 0 1.28.64.64 0 0 1 0-1.28zm2.1 14.87 2.18-1.95.6 2.84-2.79-.9z" style="fill:var(--color1, #2e2f42)"/>
            <path fill="#4d5ae5" d="M15.35 3.19v1.27a.64.64 0 1 0 1.28 0V3.19a.64.64 0 0 0-1.28 0zM3.88 14.66a.64.64 0 0 0 0 1.28h1.27a.64.64 0 1 0 0-1.28H3.88zm24.23 1.28a.64.64 0 1 0 0-1.28h-1.28a.64.64 0 0 0 0 1.28h1.28z" style="fill:var(--color2, #4d5ae5)"/>
        </symbol>
        <symbol id="diagram" viewBox="0 0 32 32">
            <path fill="#4d5ae5" d="M14.93 14.96h1.06v4.8h-1.06v-4.8zm4.26 2.14h1.07v2.66h-1.07V17.1zm-8.53 1.6h1.07v1.06h-1.07V18.7zm-3.2-.54h1.07v1.6H7.46v-1.6z" style="fill:var(--color2, #4d5ae5)"/>
            <path fill="#2e2f42" d="M1.6 28.3h25.59a1.6 1.6 0 0 0 1.6-1.6v-2.14a1.6 1.6 0 0 0-1.6-1.6h-.54V9.66l3.03-2.86a1.6 1.6 0 1 0-.74-.76L26.65 8.2V6.97a1.6 1.6 0 0 0-1.6-1.6H3.73a1.6 1.6 0 0 0-1.6 1.6v16H1.6a1.6 1.6 0 0 0-1.6 1.6v2.12a1.6 1.6 0 0 0 1.6 1.6zM30.38 4.83a.53.53 0 1 1 0 1.06.53.53 0 0 1 0-1.06zM3.2 6.97c0-.3.24-.53.53-.53h21.32c.3 0 .54.23.54.53V9.2l-1.07 1.01V8.03a.53.53 0 0 0-.53-.53H4.79a.53.53 0 0 0-.53.53v13.33c0 .3.24.53.54.53h19.19a.53.53 0 0 0 .53-.53V11.7l1.07-1.01v12.28H3.19v-16zM8 13.9a1.6 1.6 0 1 0 1.1 2.75l1.86.93a.53.53 0 0 0 .63-.12l3.94-4.44 3.87 2.9a.53.53 0 0 0 .69-.03l3.36-3.2v8.14H5.33V8.57h18.12v2.66l-3.77 3.57-3.9-2.93a.53.53 0 0 0-.72.08l-4 4.49-1.49-.75c.02-.06.02-.13.02-.19A1.6 1.6 0 0 0 8 13.9zm.53 1.6a.53.53 0 1 1-1.07 0 .53.53 0 0 1 1.07 0zm3.2 8.53h5.33v.53a.53.53 0 0 1-.53.53h-4.27a.53.53 0 0 1-.53-.53v-.53zm-10.66.53c0-.3.24-.53.53-.53h9.06v.53a1.6 1.6 0 0 0 1.6 1.6h4.26a1.6 1.6 0 0 0 1.6-1.6v-.53h9.06c.3 0 .54.24.54.53v2.13a.53.53 0 0 1-.53.54H1.59a.53.53 0 0 1-.53-.54v-2.13z" style="fill:var(--color1, #2e2f42)"/>
        </symbol>
        <symbol id="instagram" viewBox="0 0 32 32">
            <path d="M31.97 9.4a11.7 11.7 0 0 0-.74-3.87 7.8 7.8 0 0 0-1.85-2.84A7.87 7.87 0 0 0 26.54.84 11.96 11.96 0 0 0 22.66.1C20.95.02 20.4 0 16.06 0s-4.89.02-6.6.1C7.76.16 6.6.43 5.58.83a7.8 7.8 0 0 0-2.83 1.85A7.87 7.87 0 0 0 .9 5.52C.5 6.54.23 7.7.16 9.4c-.08 1.71-.1 2.26-.1 6.6s.02 4.9.1 6.6c.07 1.7.34 2.87.73 3.88a7.9 7.9 0 0 0 1.85 2.84 7.87 7.87 0 0 0 2.84 1.84c1.02.4 2.18.67 3.88.75 1.7.07 2.25.09 6.6.09s4.88-.02 6.59-.1a11.7 11.7 0 0 0 3.88-.74 8.18 8.18 0 0 0 4.68-4.68c.4-1.02.67-2.18.75-3.88.07-1.7.1-2.25.1-6.6s-.02-4.89-.09-6.6zm-2.88 13.07a8.76 8.76 0 0 1-.55 2.97 5.31 5.31 0 0 1-3.04 3.04c-.56.22-1.41.48-2.97.55-1.69.07-2.2.1-6.46.1s-4.79-.02-6.47-.1a8.76 8.76 0 0 1-2.97-.55 4.93 4.93 0 0 1-1.84-1.2 4.97 4.97 0 0 1-1.19-1.83 8.81 8.81 0 0 1-.55-2.97c-.07-1.69-.1-2.2-.1-6.47s.03-4.78.1-6.46c.07-1.56.33-2.4.55-2.97a4.87 4.87 0 0 1 1.2-1.84 4.97 4.97 0 0 1 1.84-1.19A8.81 8.81 0 0 1 9.6 3c1.69-.07 2.2-.1 6.46-.1 4.28 0 4.78.03 6.47.1 1.56.07 2.4.33 2.97.55a4.91 4.91 0 0 1 1.83 1.2 4.97 4.97 0 0 1 1.2 1.83c.22.56.48 1.41.55 2.97.07 1.69.1 2.2.1 6.46s-.03 4.77-.1 6.46z"/>
            <path d="M16.06 7.78a8.22 8.22 0 1 0 0 16.45 8.22 8.22 0 0 0 0-16.45zm0 13.55a5.33 5.33 0 0 1 0-10.66 5.33 5.33 0 0 1 0 10.67zM26.52 7.47a1.92 1.92 0 1 1-3.83 0 1.92 1.92 0 0 1 3.83 0z"/>
        </symbol>
        <symbol id="twitter" viewBox="0 0 32 32">
            <path d="M32 6.08c-1.19.52-2.46.87-3.78 1.03a6.52 6.52 0 0 0 2.89-3.62 13.11 13.11 0 0 1-4.16 1.59A6.57 6.57 0 0 0 22.15 3a6.56 6.56 0 0 0-6.4 8.06A18.57 18.57 0 0 1 2.23 4.2a6.6 6.6 0 0 0-.9 3.31 6.57 6.57 0 0 0 2.91 5.45 6.48 6.48 0 0 1-2.96-.8v.07a6.59 6.59 0 0 0 5.26 6.44 6.55 6.55 0 0 1-1.72.22 5.8 5.8 0 0 1-1.25-.11 6.62 6.62 0 0 0 6.13 4.57 13.18 13.18 0 0 1-8.13 2.8c-.54 0-1.05-.03-1.57-.1A18.47 18.47 0 0 0 10.06 29c12.08 0 18.68-10 18.68-18.67 0-.29-.01-.57-.03-.85A13.09 13.09 0 0 0 32 6.08z"/>
        </symbol>
        <symbol id="facebook" viewBox="0 0 32 32">
            <path d="M21.33 5.31h2.92V.23C23.75.15 22.01 0 19.99 0c-4.2 0-7.1 2.65-7.1 7.52V12H8.26v5.69h4.65V32h5.7V17.69h4.46l.7-5.69H18.6V8.08c0-1.64.45-2.77 2.74-2.77z"/>
        </symbol>
        <symbol id="linkedin" viewBox="0 0 32 32">
            <path d="M32 32V20.26c0-5.74-1.24-10.16-7.95-10.16-3.23 0-5.39 1.77-6.27 3.45h-.1v-2.91h-6.36V32h6.63V21.42c0-2.79.52-5.48 3.97-5.48 3.4 0 3.45 3.18 3.45 5.66V32H32zM.52 10.64h6.63V32H.53V10.64zM3.84 0C1.72 0 0 1.72 0 3.84s1.72 3.88 3.84 3.88A3.88 3.88 0 0 0 7.7 3.84 3.85 3.85 0 0 0 3.84 0z"/>
        </symbol>
        <symbol id="paper-plane" viewBox="0 0 24 24">
            <path fill="#fff" d="M24 2 0 13.25l7.67 2.37L19.5 6.38l-9 10.11V22l4.3-4.18 5.45 1.68L24 2Z"/>
        </symbol>
        <symbol id="close" viewBox="0 0 8 8">
            <path d="M8 .8 7.2 0 4 3.2.8 0 0 .8 3.2 4 0 7.2l.8.8L4 4.8 7.2 8l.8-.8L4.8 4 8 .8Z"/>
        </symbol>
        <symbol id="name" viewBox="0 0 18 18">
            <path d="M9 9a3 3 0 1 0 0-6 3 3 0 0 0 0 6Zm0 1.5c-2 0-6 1-6 3v.75c0 .41.34.75.75.75h10.5c.41 0 .75-.34.75-.75v-.75c0-2-4-3-6-3Z"/>
        </symbol>
        <symbol id="phone" viewBox="0 0 18 24">
            <path d="m14.73 13.87-1.84-.21c-.44-.06-.88.1-1.19.4l-1.33 1.34a10.89 10.89 0 0 1-4.77-4.77l1.34-1.34c.31-.31.46-.74.41-1.19l-.2-1.82A1.45 1.45 0 0 0 5.7 5H4.45c-.82 0-1.5.68-1.45 1.5A12.3 12.3 0 0 0 14.5 18c.82.05 1.5-.63 1.5-1.45V15.3c0-.73-.54-1.35-1.27-1.43Z"/>
        </symbol>
        <symbol id="email" viewBox="0 0 18 24">
            <path d="M15 6H3c-.83 0-1.5.67-1.5 1.5v9c0 .82.67 1.5 1.5 1.5h12c.82 0 1.5-.68 1.5-1.5v-9c0-.83-.68-1.5-1.5-1.5Zm-.3 3.19L9.4 12.5a.76.76 0 0 1-.8 0L3.3 9.2a.64.64 0 1 1 .68-1.08L9 11.25l5.03-3.14a.64.64 0 1 1 .67 1.08Z"/>
        </symbol>
        <symbol id="flag" viewBox="0 0 10 8">
            <path d="M8.46.49a.92.92 0 0 1 .61-.22c.23 0 .44.08.6.23.17.14.26.34.27.55 0 .21-.08.42-.23.57L5.05 6.99a.94.94 0 0 1-1.26.02L.71 4.18a.81.81 0 0 1-.2-.27.76.76 0 0 1 .17-.9.94.94 0 0 1 1.26.02L4.4 5.28 8.44.5h.02Z"/>
        </symbol>
        <symbol id="burger-menu-icon" viewBox="0 0 32 32">
            <path d="M4.8 8a1.6 1.6 0 0 1 1.6-1.6h19.2a1.6 1.6 0 0 1 0 3.2H6.4A1.6 1.6 0 0 1 4.8 8zM4.8 16a1.6 1.6 0 0 1 1.6-1.6h19.2a1.6 1.6 0 0 1 0 3.2H6.4A1.6 1.6 0 0 1 4.8 16zM4.8 24a1.6 1.6 0 0 1 1.6-1.6h19.2a1.6 1.6 0 0 1 0 3.2H6.4A1.6 1.6 0 0 1 4.8 24z"/>
        </symbol>
    </defs>
</svg>
